<?xml version="1.0" encoding="UTF-8" standalone="no"?>
<!-- Generator: Adobe Illustrator 20.0.0, SVG Export Plug-In . SVG Version: 6.00 Build 0)  -->

<svg
   version="1.1"
   id="White"
   x="0px"
   y="0px"
   viewBox="0 0 400 400"
   style="enable-background:new 0 0 400 400;"
   xml:space="preserve"
   sodipodi:docname="Twitter social icons - square - black.svg"
   inkscape:version="1.2.2 (732a01da63, 2022-12-09)"
   xmlns:inkscape="http://www.inkscape.org/namespaces/inkscape"
   xmlns:sodipodi="http://sodipodi.sourceforge.net/DTD/sodipodi-0.dtd"
   xmlns="http://www.w3.org/2000/svg"
   xmlns:svg="http://www.w3.org/2000/svg"><defs
   id="defs9" /><sodipodi:namedview
   id="namedview7"
   pagecolor="#505050"
   bordercolor="#ffffff"
   borderopacity="1"
   inkscape:showpageshadow="0"
   inkscape:pageopacity="0"
   inkscape:pagecheckerboard="1"
   inkscape:deskcolor="#505050"
   showgrid="false"
   inkscape:zoom="0.5425"
   inkscape:cx="77.419355"
   inkscape:cy="119.81567"
   inkscape:window-width="1680"
   inkscape:window-height="997"
   inkscape:window-x="1912"
   inkscape:window-y="80"
   inkscape:window-maximized="1"
   inkscape:current-layer="White" />
<style
   type="text/css"
   id="style2">
	.st0{fill:#FFFFFF;}
</style>
<path
   class="st0"
   d="M 400.00586,-113.36405 H 0.00582937 v -400 H 400.00586 Z m -246.40003,-98.4 c 94.3,0 145.9,-78.2 145.9,-145.9 0,-2.2 0,-4.4 -0.1,-6.6 10,-7.2 18.7,-16.3 25.6,-26.6 -9.2,4.1 -19.1,6.8 -29.5,8.1 10.6,-6.3 18.7,-16.4 22.6,-28.4 -9.9,5.9 -20.9,10.1 -32.6,12.4 -9.4,-10 -22.7,-16.2 -37.4,-16.2 -28.3,0 -51.3,23 -51.3,51.3 0,4 0.5,7.9 1.3,11.7 -42.6,-2.1 -80.4,-22.6 -105.700001,-53.6 -4.4,7.6 -6.9,16.4 -6.9,25.8 0,17.8 9.1,33.5 22.800001,42.7 -8.400001,-0.3 -16.300001,-2.6 -23.200001,-6.4 0,0.2 0,0.4 0,0.7 0,24.8 17.700001,45.6 41.100001,50.3 -4.3,1.2 -8.8,1.8 -13.5,1.8 -3.3,0 -6.5,-0.3 -9.6,-0.9 6.5,20.4 25.5,35.2 47.9,35.6 -17.6,13.8 -39.7,22 -63.700001,22 -4.1,0 -8.2,-0.2 -12.2,-0.7 22.6,14.4 49.600001,22.9 78.500001,22.9"
   id="path4"
   inkscape:export-filename="twitter_black_square.png"
   inkscape:export-xdpi="96"
   inkscape:export-ydpi="96" />
<rect
   style="fill:#000000;fill-opacity:1;stroke-width:1.13386;stroke-dasharray:4.53543, 1.13386"
   id="rect961"
   width="400"
   height="400"
   x="0"
   y="0"
   ry="4.5227423"
   inkscape:export-filename="twitter_black_square.png"
   inkscape:export-xdpi="96"
   inkscape:export-ydpi="96" /><circle
   style="fill:#ffffff;stroke-width:1.13386;stroke-dasharray:4.53543, 1.13386;fill-opacity:1"
   id="path893"
   cx="200"
   cy="200"
   r="200.00586" /><path
   style="fill:#000000;fill-opacity:1;stroke:none;stroke-width:1.04503;stroke-dasharray:4.18012, 1.04503"
   d="m 138.27169,300.39873 c -17.11619,-1.8896 -39.514739,-8.96241 -54.229869,-17.12419 l -6.41285,-3.55691 11.19694,-0.13967 c 11.429939,-0.14258 21.369879,-1.73871 31.473429,-5.05391 7.52515,-2.46918 21.12185,-9.30071 26.72811,-13.42929 l 4.60829,-3.39365 -7.83744,-1.54438 c -4.3106,-0.84941 -10.73896,-2.94638 -14.28526,-4.65995 -10.25796,-4.9566 -21.99475,-17.79166 -24.76164,-27.07869 -0.52559,-1.76414 -0.11605,-1.84366 9.53493,-1.85121 11.3575,-0.009 14.55401,-1.25065 8.11632,-3.15297 -17.88503,-5.285 -32.869059,-22.12132 -35.918369,-40.3585 -0.61182,-3.65916 -0.90498,-6.86045 -0.65145,-7.11397 0.25353,-0.25353 3.34262,0.51736 6.86465,1.71307 3.52204,1.19572 8.613539,2.44554 11.314449,2.77739 l 4.91074,0.60336 -6.8289,-6.74083 C 85.999281,154.40751 81.559511,131.61592 90.805511,112.34598 l 1.59123,-3.31634 7.960519,8.26785 c 11.53083,11.97603 24.85931,21.6664 40.21858,29.24062 17.38762,8.57448 32.45105,12.80236 53.72804,15.07997 l 3.95847,0.42374 -0.5976,-7.52154 c -0.79055,-9.94992 0.69825,-17.71824 5.18575,-27.05861 9.27403,-19.3031 30.48379,-30.888178 51.42749,-28.090458 9.21506,1.230968 20.38331,6.237618 27.09733,12.147528 l 4.37673,3.85255 8.07978,-2.31766 c 4.44389,-1.27472 11.33562,-3.8014 15.31497,-5.61485 3.97936,-1.81345 7.41512,-3.29718 7.63501,-3.29718 0.2199,0 -0.96718,2.59216 -2.63796,5.76036 -2.86448,5.43176 -12.26751,15.96675 -17.34682,19.43509 -2.27016,1.55015 -2.2294,1.56466 2.76498,0.98443 4.47591,-0.52001 16.7502,-3.66441 21.53579,-5.517 1.50794,-0.58375 1.59331,-0.42893 0.69205,1.25509 -1.54628,2.88926 -15.04951,16.86393 -19.34221,20.01751 l -3.76371,2.76498 -0.0401,9.67742 c -0.0708,17.10658 -3.59511,34.17668 -10.71263,51.88665 -17.14693,42.66541 -51.36338,73.64309 -94.36003,85.42836 -16.01292,4.3891 -39.40071,6.31945 -55.29954,4.56424 z"
   id="path915" /></svg>
